<mxfile host="app.diagrams.net" agent="Mozilla/5.0 (Macintosh; Intel Mac OS X 10_15_7) AppleWebKit/537.36 (KHTML, like Gecko) Chrome/135.0.0.0 Safari/537.36" version="26.2.14">
  <diagram name="Page-1" id="yqb7Kewr4lASMIPp84Qh">
    <mxGraphModel dx="3552" dy="1809" grid="1" gridSize="10" guides="1" tooltips="1" connect="1" arrows="1" fold="1" page="1" pageScale="1" pageWidth="850" pageHeight="1100" math="0" shadow="0">
      <root>
        <mxCell id="0" />
        <mxCell id="1" parent="0" />
        <mxCell id="ujPkwXIdx63XAKxrbctk-1" value="1.0" style="swimlane;fontStyle=0;childLayout=stackLayout;horizontal=1;startSize=20;fillColor=#ffffff;horizontalStack=0;resizeParent=1;resizeParentMax=0;resizeLast=0;collapsible=0;marginBottom=0;swimlaneFillColor=#ffffff;rounded=1;" vertex="1" parent="1">
          <mxGeometry x="160" y="150" width="100" height="50" as="geometry" />
        </mxCell>
        <mxCell id="ujPkwXIdx63XAKxrbctk-2" value="Onboarding" style="text;html=1;align=center;verticalAlign=middle;whiteSpace=wrap;rounded=0;" vertex="1" parent="ujPkwXIdx63XAKxrbctk-1">
          <mxGeometry y="20" width="100" height="30" as="geometry" />
        </mxCell>
        <mxCell id="ujPkwXIdx63XAKxrbctk-3" value="2.0" style="swimlane;fontStyle=0;childLayout=stackLayout;horizontal=1;startSize=20;fillColor=#ffffff;horizontalStack=0;resizeParent=1;resizeParentMax=0;resizeLast=0;collapsible=0;marginBottom=0;swimlaneFillColor=#ffffff;rounded=1;" vertex="1" parent="1">
          <mxGeometry x="300" y="150" width="100" height="50" as="geometry" />
        </mxCell>
        <mxCell id="ujPkwXIdx63XAKxrbctk-4" value="Register" style="text;html=1;align=center;verticalAlign=middle;whiteSpace=wrap;rounded=0;" vertex="1" parent="ujPkwXIdx63XAKxrbctk-3">
          <mxGeometry y="20" width="100" height="30" as="geometry" />
        </mxCell>
        <mxCell id="ujPkwXIdx63XAKxrbctk-5" value="3.0" style="swimlane;fontStyle=0;childLayout=stackLayout;horizontal=1;startSize=20;fillColor=#ffffff;horizontalStack=0;resizeParent=1;resizeParentMax=0;resizeLast=0;collapsible=0;marginBottom=0;swimlaneFillColor=#ffffff;rounded=1;" vertex="1" parent="1">
          <mxGeometry x="440" y="150" width="100" height="50" as="geometry" />
        </mxCell>
        <mxCell id="ujPkwXIdx63XAKxrbctk-6" value="Verified" style="text;html=1;align=center;verticalAlign=middle;whiteSpace=wrap;rounded=0;" vertex="1" parent="ujPkwXIdx63XAKxrbctk-5">
          <mxGeometry y="20" width="100" height="30" as="geometry" />
        </mxCell>
        <mxCell id="ujPkwXIdx63XAKxrbctk-9" style="edgeStyle=orthogonalEdgeStyle;rounded=0;orthogonalLoop=1;jettySize=auto;html=1;entryX=0.5;entryY=0;entryDx=0;entryDy=0;endArrow=none;startFill=0;" edge="1" parent="1" source="ujPkwXIdx63XAKxrbctk-7" target="ujPkwXIdx63XAKxrbctk-1">
          <mxGeometry relative="1" as="geometry">
            <Array as="points">
              <mxPoint x="350" y="120" />
              <mxPoint x="210" y="120" />
            </Array>
          </mxGeometry>
        </mxCell>
        <mxCell id="ujPkwXIdx63XAKxrbctk-7" value="0.0" style="swimlane;fontStyle=0;childLayout=stackLayout;horizontal=1;startSize=20;fillColor=#ffffff;horizontalStack=0;resizeParent=1;resizeParentMax=0;resizeLast=0;collapsible=0;marginBottom=0;swimlaneFillColor=#ffffff;rounded=1;" vertex="1" parent="1">
          <mxGeometry x="300" y="50" width="100" height="50" as="geometry" />
        </mxCell>
        <mxCell id="ujPkwXIdx63XAKxrbctk-8" value="App" style="text;html=1;align=center;verticalAlign=middle;whiteSpace=wrap;rounded=0;" vertex="1" parent="ujPkwXIdx63XAKxrbctk-7">
          <mxGeometry y="20" width="100" height="30" as="geometry" />
        </mxCell>
        <mxCell id="ujPkwXIdx63XAKxrbctk-10" style="edgeStyle=orthogonalEdgeStyle;rounded=0;orthogonalLoop=1;jettySize=auto;html=1;entryX=0.5;entryY=0;entryDx=0;entryDy=0;endArrow=none;startFill=0;" edge="1" parent="1" source="ujPkwXIdx63XAKxrbctk-8" target="ujPkwXIdx63XAKxrbctk-3">
          <mxGeometry relative="1" as="geometry" />
        </mxCell>
        <mxCell id="ujPkwXIdx63XAKxrbctk-11" style="edgeStyle=orthogonalEdgeStyle;rounded=0;orthogonalLoop=1;jettySize=auto;html=1;entryX=0.5;entryY=0;entryDx=0;entryDy=0;endArrow=none;startFill=0;" edge="1" parent="1" source="ujPkwXIdx63XAKxrbctk-8" target="ujPkwXIdx63XAKxrbctk-5">
          <mxGeometry relative="1" as="geometry">
            <Array as="points">
              <mxPoint x="350" y="120" />
              <mxPoint x="490" y="120" />
            </Array>
          </mxGeometry>
        </mxCell>
        <mxCell id="ujPkwXIdx63XAKxrbctk-30" style="edgeStyle=orthogonalEdgeStyle;rounded=0;orthogonalLoop=1;jettySize=auto;html=1;entryX=0.5;entryY=0;entryDx=0;entryDy=0;endArrow=none;startFill=0;" edge="1" parent="1" source="ujPkwXIdx63XAKxrbctk-12" target="ujPkwXIdx63XAKxrbctk-23">
          <mxGeometry relative="1" as="geometry">
            <Array as="points">
              <mxPoint x="140" y="320" />
              <mxPoint x="198" y="320" />
            </Array>
          </mxGeometry>
        </mxCell>
        <mxCell id="ujPkwXIdx63XAKxrbctk-12" value="2.0" style="swimlane;fontStyle=0;childLayout=stackLayout;horizontal=1;startSize=20;fillColor=#ffffff;horizontalStack=0;resizeParent=1;resizeParentMax=0;resizeLast=0;collapsible=0;marginBottom=0;swimlaneFillColor=#ffffff;rounded=1;" vertex="1" parent="1">
          <mxGeometry x="90" y="250" width="100" height="50" as="geometry" />
        </mxCell>
        <mxCell id="ujPkwXIdx63XAKxrbctk-13" value="Register" style="text;html=1;align=center;verticalAlign=middle;whiteSpace=wrap;rounded=0;" vertex="1" parent="ujPkwXIdx63XAKxrbctk-12">
          <mxGeometry y="20" width="100" height="30" as="geometry" />
        </mxCell>
        <mxCell id="ujPkwXIdx63XAKxrbctk-17" value="2.1" style="swimlane;fontStyle=0;childLayout=stackLayout;horizontal=1;startSize=20;fillColor=#ffffff;horizontalStack=0;resizeParent=1;resizeParentMax=0;resizeLast=0;collapsible=0;marginBottom=0;swimlaneFillColor=#ffffff;rounded=1;" vertex="1" parent="1">
          <mxGeometry x="-82.5" y="340" width="100" height="50" as="geometry" />
        </mxCell>
        <mxCell id="ujPkwXIdx63XAKxrbctk-18" value="Create Account" style="text;html=1;align=center;verticalAlign=middle;whiteSpace=wrap;rounded=0;" vertex="1" parent="ujPkwXIdx63XAKxrbctk-17">
          <mxGeometry y="20" width="100" height="30" as="geometry" />
        </mxCell>
        <mxCell id="ujPkwXIdx63XAKxrbctk-20" value="2.2" style="swimlane;fontStyle=0;childLayout=stackLayout;horizontal=1;startSize=20;fillColor=#ffffff;horizontalStack=0;resizeParent=1;resizeParentMax=0;resizeLast=0;collapsible=0;marginBottom=0;swimlaneFillColor=#ffffff;rounded=1;" vertex="1" parent="1">
          <mxGeometry x="32.5" y="340" width="100" height="50" as="geometry" />
        </mxCell>
        <mxCell id="ujPkwXIdx63XAKxrbctk-21" value="Sign In" style="text;html=1;align=center;verticalAlign=middle;whiteSpace=wrap;rounded=0;" vertex="1" parent="ujPkwXIdx63XAKxrbctk-20">
          <mxGeometry y="20" width="100" height="30" as="geometry" />
        </mxCell>
        <mxCell id="ujPkwXIdx63XAKxrbctk-23" value="2.3" style="swimlane;fontStyle=0;childLayout=stackLayout;horizontal=1;startSize=20;fillColor=#ffffff;horizontalStack=0;resizeParent=1;resizeParentMax=0;resizeLast=0;collapsible=0;marginBottom=0;swimlaneFillColor=#ffffff;rounded=1;" vertex="1" parent="1">
          <mxGeometry x="147.5" y="340" width="100" height="50" as="geometry" />
        </mxCell>
        <mxCell id="ujPkwXIdx63XAKxrbctk-24" value="Google Auth" style="text;html=1;align=center;verticalAlign=middle;whiteSpace=wrap;rounded=0;" vertex="1" parent="ujPkwXIdx63XAKxrbctk-23">
          <mxGeometry y="20" width="100" height="30" as="geometry" />
        </mxCell>
        <mxCell id="ujPkwXIdx63XAKxrbctk-25" value="2.4" style="swimlane;fontStyle=0;childLayout=stackLayout;horizontal=1;startSize=20;fillColor=#ffffff;horizontalStack=0;resizeParent=1;resizeParentMax=0;resizeLast=0;collapsible=0;marginBottom=0;swimlaneFillColor=#ffffff;rounded=1;" vertex="1" parent="1">
          <mxGeometry x="262.5" y="340" width="100" height="50" as="geometry" />
        </mxCell>
        <mxCell id="ujPkwXIdx63XAKxrbctk-26" value="Facebook Auth" style="text;html=1;align=center;verticalAlign=middle;whiteSpace=wrap;rounded=0;" vertex="1" parent="ujPkwXIdx63XAKxrbctk-25">
          <mxGeometry y="20" width="100" height="30" as="geometry" />
        </mxCell>
        <mxCell id="ujPkwXIdx63XAKxrbctk-28" style="edgeStyle=orthogonalEdgeStyle;rounded=0;orthogonalLoop=1;jettySize=auto;html=1;entryX=0.5;entryY=0;entryDx=0;entryDy=0;endArrow=none;startFill=0;" edge="1" parent="1" source="ujPkwXIdx63XAKxrbctk-13" target="ujPkwXIdx63XAKxrbctk-17">
          <mxGeometry relative="1" as="geometry">
            <Array as="points">
              <mxPoint x="140" y="320" />
              <mxPoint x="-32" y="320" />
            </Array>
          </mxGeometry>
        </mxCell>
        <mxCell id="ujPkwXIdx63XAKxrbctk-29" style="edgeStyle=orthogonalEdgeStyle;rounded=0;orthogonalLoop=1;jettySize=auto;html=1;endArrow=none;startFill=0;" edge="1" parent="1" source="ujPkwXIdx63XAKxrbctk-13" target="ujPkwXIdx63XAKxrbctk-20">
          <mxGeometry relative="1" as="geometry">
            <Array as="points">
              <mxPoint x="140" y="320" />
              <mxPoint x="83" y="320" />
            </Array>
          </mxGeometry>
        </mxCell>
        <mxCell id="ujPkwXIdx63XAKxrbctk-31" style="edgeStyle=orthogonalEdgeStyle;rounded=0;orthogonalLoop=1;jettySize=auto;html=1;entryX=0.5;entryY=0;entryDx=0;entryDy=0;endArrow=none;startFill=0;" edge="1" parent="1" source="ujPkwXIdx63XAKxrbctk-13" target="ujPkwXIdx63XAKxrbctk-25">
          <mxGeometry relative="1" as="geometry">
            <Array as="points">
              <mxPoint x="140" y="320" />
              <mxPoint x="313" y="320" />
            </Array>
          </mxGeometry>
        </mxCell>
        <mxCell id="ujPkwXIdx63XAKxrbctk-32" value="2.1.1" style="swimlane;fontStyle=0;childLayout=stackLayout;horizontal=1;startSize=20;fillColor=#ffffff;horizontalStack=0;resizeParent=1;resizeParentMax=0;resizeLast=0;collapsible=0;marginBottom=0;swimlaneFillColor=#ffffff;rounded=1;" vertex="1" parent="1">
          <mxGeometry x="-82.5" y="420" width="100" height="50" as="geometry" />
        </mxCell>
        <mxCell id="ujPkwXIdx63XAKxrbctk-33" value="Verification" style="text;html=1;align=center;verticalAlign=middle;whiteSpace=wrap;rounded=0;" vertex="1" parent="ujPkwXIdx63XAKxrbctk-32">
          <mxGeometry y="20" width="100" height="30" as="geometry" />
        </mxCell>
        <mxCell id="ujPkwXIdx63XAKxrbctk-34" style="edgeStyle=orthogonalEdgeStyle;rounded=0;orthogonalLoop=1;jettySize=auto;html=1;endArrow=none;startFill=0;" edge="1" parent="1" source="ujPkwXIdx63XAKxrbctk-18">
          <mxGeometry relative="1" as="geometry">
            <mxPoint x="-32.47826086956502" y="420" as="targetPoint" />
          </mxGeometry>
        </mxCell>
        <mxCell id="ujPkwXIdx63XAKxrbctk-36" value="3.0" style="swimlane;fontStyle=0;childLayout=stackLayout;horizontal=1;startSize=20;fillColor=#ffffff;horizontalStack=0;resizeParent=1;resizeParentMax=0;resizeLast=0;collapsible=0;marginBottom=0;swimlaneFillColor=#ffffff;rounded=1;" vertex="1" parent="1">
          <mxGeometry x="642.5" y="250" width="100" height="50" as="geometry" />
        </mxCell>
        <mxCell id="ujPkwXIdx63XAKxrbctk-37" value="Verified" style="text;html=1;align=center;verticalAlign=middle;whiteSpace=wrap;rounded=0;" vertex="1" parent="ujPkwXIdx63XAKxrbctk-36">
          <mxGeometry y="20" width="100" height="30" as="geometry" />
        </mxCell>
        <mxCell id="ujPkwXIdx63XAKxrbctk-38" value="3.1" style="swimlane;fontStyle=0;childLayout=stackLayout;horizontal=1;startSize=20;fillColor=#ffffff;horizontalStack=0;resizeParent=1;resizeParentMax=0;resizeLast=0;collapsible=0;marginBottom=0;swimlaneFillColor=#ffffff;rounded=1;" vertex="1" parent="1">
          <mxGeometry x="562.5" y="340" width="100" height="50" as="geometry" />
        </mxCell>
        <mxCell id="ujPkwXIdx63XAKxrbctk-39" value="Drawer" style="text;html=1;align=center;verticalAlign=middle;whiteSpace=wrap;rounded=0;" vertex="1" parent="ujPkwXIdx63XAKxrbctk-38">
          <mxGeometry y="20" width="100" height="30" as="geometry" />
        </mxCell>
        <mxCell id="ujPkwXIdx63XAKxrbctk-40" style="edgeStyle=orthogonalEdgeStyle;rounded=0;orthogonalLoop=1;jettySize=auto;html=1;entryX=0.5;entryY=0;entryDx=0;entryDy=0;endArrow=none;startFill=0;" edge="1" parent="1" source="ujPkwXIdx63XAKxrbctk-37" target="ujPkwXIdx63XAKxrbctk-38">
          <mxGeometry relative="1" as="geometry" />
        </mxCell>
        <mxCell id="ujPkwXIdx63XAKxrbctk-43" value="3.2" style="swimlane;fontStyle=0;childLayout=stackLayout;horizontal=1;startSize=20;fillColor=#ffffff;horizontalStack=0;resizeParent=1;resizeParentMax=0;resizeLast=0;collapsible=0;marginBottom=0;swimlaneFillColor=#ffffff;rounded=1;" vertex="1" parent="1">
          <mxGeometry x="722.5" y="340" width="100" height="50" as="geometry" />
        </mxCell>
        <mxCell id="ujPkwXIdx63XAKxrbctk-44" value="Tabs" style="text;html=1;align=center;verticalAlign=middle;whiteSpace=wrap;rounded=0;" vertex="1" parent="ujPkwXIdx63XAKxrbctk-43">
          <mxGeometry y="20" width="100" height="30" as="geometry" />
        </mxCell>
        <mxCell id="ujPkwXIdx63XAKxrbctk-45" style="edgeStyle=orthogonalEdgeStyle;rounded=0;orthogonalLoop=1;jettySize=auto;html=1;entryX=0.5;entryY=0;entryDx=0;entryDy=0;endArrow=none;startFill=0;" edge="1" parent="1" source="ujPkwXIdx63XAKxrbctk-37" target="ujPkwXIdx63XAKxrbctk-43">
          <mxGeometry relative="1" as="geometry" />
        </mxCell>
        <mxCell id="ujPkwXIdx63XAKxrbctk-46" value="3.1" style="swimlane;fontStyle=0;childLayout=stackLayout;horizontal=1;startSize=20;fillColor=#ffffff;horizontalStack=0;resizeParent=1;resizeParentMax=0;resizeLast=0;collapsible=0;marginBottom=0;swimlaneFillColor=#ffffff;rounded=1;" vertex="1" parent="1">
          <mxGeometry x="347.5" y="460" width="100" height="50" as="geometry" />
        </mxCell>
        <mxCell id="ujPkwXIdx63XAKxrbctk-47" value="Drawer" style="text;html=1;align=center;verticalAlign=middle;whiteSpace=wrap;rounded=0;" vertex="1" parent="ujPkwXIdx63XAKxrbctk-46">
          <mxGeometry y="20" width="100" height="30" as="geometry" />
        </mxCell>
        <mxCell id="ujPkwXIdx63XAKxrbctk-48" value="3.1.1" style="swimlane;fontStyle=0;childLayout=stackLayout;horizontal=1;startSize=20;fillColor=#ffffff;horizontalStack=0;resizeParent=1;resizeParentMax=0;resizeLast=0;collapsible=0;marginBottom=0;swimlaneFillColor=#ffffff;rounded=1;" vertex="1" parent="1">
          <mxGeometry x="117.5" y="560" width="100" height="50" as="geometry" />
        </mxCell>
        <mxCell id="ujPkwXIdx63XAKxrbctk-49" value="Profile" style="text;html=1;align=center;verticalAlign=middle;whiteSpace=wrap;rounded=0;" vertex="1" parent="ujPkwXIdx63XAKxrbctk-48">
          <mxGeometry y="20" width="100" height="30" as="geometry" />
        </mxCell>
        <mxCell id="ujPkwXIdx63XAKxrbctk-51" value="3.1.2" style="swimlane;fontStyle=0;childLayout=stackLayout;horizontal=1;startSize=20;fillColor=#ffffff;horizontalStack=0;resizeParent=1;resizeParentMax=0;resizeLast=0;collapsible=0;marginBottom=0;swimlaneFillColor=#ffffff;rounded=1;" vertex="1" parent="1">
          <mxGeometry x="232.5" y="560" width="100" height="50" as="geometry" />
        </mxCell>
        <mxCell id="ujPkwXIdx63XAKxrbctk-52" value="My Groups" style="text;html=1;align=center;verticalAlign=middle;whiteSpace=wrap;rounded=0;" vertex="1" parent="ujPkwXIdx63XAKxrbctk-51">
          <mxGeometry y="20" width="100" height="30" as="geometry" />
        </mxCell>
        <mxCell id="ujPkwXIdx63XAKxrbctk-53" value="3.1.3" style="swimlane;fontStyle=0;childLayout=stackLayout;horizontal=1;startSize=20;fillColor=#ffffff;horizontalStack=0;resizeParent=1;resizeParentMax=0;resizeLast=0;collapsible=0;marginBottom=0;swimlaneFillColor=#ffffff;rounded=1;" vertex="1" parent="1">
          <mxGeometry x="347.5" y="560" width="100" height="50" as="geometry" />
        </mxCell>
        <mxCell id="ujPkwXIdx63XAKxrbctk-54" value="My Events" style="text;html=1;align=center;verticalAlign=middle;whiteSpace=wrap;rounded=0;" vertex="1" parent="ujPkwXIdx63XAKxrbctk-53">
          <mxGeometry y="20" width="100" height="30" as="geometry" />
        </mxCell>
        <mxCell id="ujPkwXIdx63XAKxrbctk-55" value="3.1.4" style="swimlane;fontStyle=0;childLayout=stackLayout;horizontal=1;startSize=20;fillColor=#ffffff;horizontalStack=0;resizeParent=1;resizeParentMax=0;resizeLast=0;collapsible=0;marginBottom=0;swimlaneFillColor=#ffffff;rounded=1;" vertex="1" parent="1">
          <mxGeometry x="462.5" y="560" width="100" height="50" as="geometry" />
        </mxCell>
        <mxCell id="ujPkwXIdx63XAKxrbctk-56" value="Bookmarks" style="text;html=1;align=center;verticalAlign=middle;whiteSpace=wrap;rounded=0;" vertex="1" parent="ujPkwXIdx63XAKxrbctk-55">
          <mxGeometry y="20" width="100" height="30" as="geometry" />
        </mxCell>
        <mxCell id="ujPkwXIdx63XAKxrbctk-57" value="3.1.5" style="swimlane;fontStyle=0;childLayout=stackLayout;horizontal=1;startSize=20;fillColor=#ffffff;horizontalStack=0;resizeParent=1;resizeParentMax=0;resizeLast=0;collapsible=0;marginBottom=0;swimlaneFillColor=#ffffff;rounded=1;" vertex="1" parent="1">
          <mxGeometry x="580" y="560" width="100" height="50" as="geometry" />
        </mxCell>
        <mxCell id="ujPkwXIdx63XAKxrbctk-58" value="Verification" style="text;html=1;align=center;verticalAlign=middle;whiteSpace=wrap;rounded=0;" vertex="1" parent="ujPkwXIdx63XAKxrbctk-57">
          <mxGeometry y="20" width="100" height="30" as="geometry" />
        </mxCell>
        <mxCell id="ujPkwXIdx63XAKxrbctk-59" style="edgeStyle=orthogonalEdgeStyle;rounded=0;orthogonalLoop=1;jettySize=auto;html=1;endArrow=none;startFill=0;" edge="1" parent="1" source="ujPkwXIdx63XAKxrbctk-47" target="ujPkwXIdx63XAKxrbctk-48">
          <mxGeometry relative="1" as="geometry">
            <Array as="points">
              <mxPoint x="398.75" y="530" />
              <mxPoint x="167.75" y="530" />
            </Array>
          </mxGeometry>
        </mxCell>
        <mxCell id="ujPkwXIdx63XAKxrbctk-60" style="edgeStyle=orthogonalEdgeStyle;rounded=0;orthogonalLoop=1;jettySize=auto;html=1;exitX=0.5;exitY=1;exitDx=0;exitDy=0;entryX=0.5;entryY=0;entryDx=0;entryDy=0;endArrow=none;startFill=0;" edge="1" parent="1" source="ujPkwXIdx63XAKxrbctk-47" target="ujPkwXIdx63XAKxrbctk-51">
          <mxGeometry relative="1" as="geometry">
            <Array as="points">
              <mxPoint x="397.75" y="530" />
              <mxPoint x="282.75" y="530" />
            </Array>
          </mxGeometry>
        </mxCell>
        <mxCell id="ujPkwXIdx63XAKxrbctk-61" style="edgeStyle=orthogonalEdgeStyle;rounded=0;orthogonalLoop=1;jettySize=auto;html=1;entryX=0.5;entryY=0;entryDx=0;entryDy=0;endArrow=none;startFill=0;" edge="1" parent="1" source="ujPkwXIdx63XAKxrbctk-47" target="ujPkwXIdx63XAKxrbctk-53">
          <mxGeometry relative="1" as="geometry" />
        </mxCell>
        <mxCell id="ujPkwXIdx63XAKxrbctk-62" style="edgeStyle=orthogonalEdgeStyle;rounded=0;orthogonalLoop=1;jettySize=auto;html=1;entryX=0.5;entryY=0;entryDx=0;entryDy=0;endArrow=none;startFill=0;" edge="1" parent="1" source="ujPkwXIdx63XAKxrbctk-47" target="ujPkwXIdx63XAKxrbctk-55">
          <mxGeometry relative="1" as="geometry">
            <Array as="points">
              <mxPoint x="397.75" y="530" />
              <mxPoint x="512.75" y="530" />
            </Array>
          </mxGeometry>
        </mxCell>
        <mxCell id="ujPkwXIdx63XAKxrbctk-63" style="edgeStyle=orthogonalEdgeStyle;rounded=0;orthogonalLoop=1;jettySize=auto;html=1;entryX=0.5;entryY=0;entryDx=0;entryDy=0;endArrow=none;startFill=0;" edge="1" parent="1" source="ujPkwXIdx63XAKxrbctk-47" target="ujPkwXIdx63XAKxrbctk-57">
          <mxGeometry relative="1" as="geometry">
            <Array as="points">
              <mxPoint x="397.75" y="530" />
              <mxPoint x="629.75" y="530" />
            </Array>
          </mxGeometry>
        </mxCell>
        <mxCell id="ujPkwXIdx63XAKxrbctk-78" style="edgeStyle=orthogonalEdgeStyle;rounded=0;orthogonalLoop=1;jettySize=auto;html=1;entryX=0.5;entryY=0;entryDx=0;entryDy=0;endArrow=none;startFill=0;" edge="1" parent="1" source="ujPkwXIdx63XAKxrbctk-64" target="ujPkwXIdx63XAKxrbctk-73">
          <mxGeometry relative="1" as="geometry">
            <Array as="points">
              <mxPoint x="950" y="530" />
              <mxPoint x="1000" y="530" />
            </Array>
          </mxGeometry>
        </mxCell>
        <mxCell id="ujPkwXIdx63XAKxrbctk-64" value="3.2" style="swimlane;fontStyle=0;childLayout=stackLayout;horizontal=1;startSize=20;fillColor=#ffffff;horizontalStack=0;resizeParent=1;resizeParentMax=0;resizeLast=0;collapsible=0;marginBottom=0;swimlaneFillColor=#ffffff;rounded=1;" vertex="1" parent="1">
          <mxGeometry x="900" y="460" width="100" height="50" as="geometry" />
        </mxCell>
        <mxCell id="ujPkwXIdx63XAKxrbctk-65" value="Tabs" style="text;html=1;align=center;verticalAlign=middle;whiteSpace=wrap;rounded=0;" vertex="1" parent="ujPkwXIdx63XAKxrbctk-64">
          <mxGeometry y="20" width="100" height="30" as="geometry" />
        </mxCell>
        <mxCell id="ujPkwXIdx63XAKxrbctk-66" value="3.2.1" style="swimlane;fontStyle=0;childLayout=stackLayout;horizontal=1;startSize=20;fillColor=#ffffff;horizontalStack=0;resizeParent=1;resizeParentMax=0;resizeLast=0;collapsible=0;marginBottom=0;swimlaneFillColor=#ffffff;rounded=1;" vertex="1" parent="1">
          <mxGeometry x="710" y="560" width="100" height="50" as="geometry" />
        </mxCell>
        <mxCell id="ujPkwXIdx63XAKxrbctk-67" value="Home" style="text;html=1;align=center;verticalAlign=middle;whiteSpace=wrap;rounded=0;" vertex="1" parent="ujPkwXIdx63XAKxrbctk-66">
          <mxGeometry y="20" width="100" height="30" as="geometry" />
        </mxCell>
        <mxCell id="ujPkwXIdx63XAKxrbctk-68" style="edgeStyle=orthogonalEdgeStyle;rounded=0;orthogonalLoop=1;jettySize=auto;html=1;entryX=0.5;entryY=0;entryDx=0;entryDy=0;endArrow=none;startFill=0;" edge="1" parent="1" source="ujPkwXIdx63XAKxrbctk-65" target="ujPkwXIdx63XAKxrbctk-66">
          <mxGeometry relative="1" as="geometry">
            <Array as="points">
              <mxPoint x="950" y="530" />
              <mxPoint x="760" y="530" />
            </Array>
          </mxGeometry>
        </mxCell>
        <mxCell id="ujPkwXIdx63XAKxrbctk-69" value="3.2.2" style="swimlane;fontStyle=0;childLayout=stackLayout;horizontal=1;startSize=20;fillColor=#ffffff;horizontalStack=0;resizeParent=1;resizeParentMax=0;resizeLast=0;collapsible=0;marginBottom=0;swimlaneFillColor=#ffffff;rounded=1;" vertex="1" parent="1">
          <mxGeometry x="830" y="560" width="100" height="50" as="geometry" />
        </mxCell>
        <mxCell id="ujPkwXIdx63XAKxrbctk-70" value="Events" style="text;html=1;align=center;verticalAlign=middle;whiteSpace=wrap;rounded=0;" vertex="1" parent="ujPkwXIdx63XAKxrbctk-69">
          <mxGeometry y="20" width="100" height="30" as="geometry" />
        </mxCell>
        <mxCell id="ujPkwXIdx63XAKxrbctk-73" value="3.2.3" style="swimlane;fontStyle=0;childLayout=stackLayout;horizontal=1;startSize=20;fillColor=#ffffff;horizontalStack=0;resizeParent=1;resizeParentMax=0;resizeLast=0;collapsible=0;marginBottom=0;swimlaneFillColor=#ffffff;rounded=1;" vertex="1" parent="1">
          <mxGeometry x="950" y="560" width="100" height="50" as="geometry" />
        </mxCell>
        <mxCell id="ujPkwXIdx63XAKxrbctk-74" value="Connect" style="text;html=1;align=center;verticalAlign=middle;whiteSpace=wrap;rounded=0;" vertex="1" parent="ujPkwXIdx63XAKxrbctk-73">
          <mxGeometry y="20" width="100" height="30" as="geometry" />
        </mxCell>
        <mxCell id="ujPkwXIdx63XAKxrbctk-75" value="3.2.4" style="swimlane;fontStyle=0;childLayout=stackLayout;horizontal=1;startSize=20;fillColor=#ffffff;horizontalStack=0;resizeParent=1;resizeParentMax=0;resizeLast=0;collapsible=0;marginBottom=0;swimlaneFillColor=#ffffff;rounded=1;" vertex="1" parent="1">
          <mxGeometry x="1070" y="560" width="100" height="50" as="geometry" />
        </mxCell>
        <mxCell id="ujPkwXIdx63XAKxrbctk-76" value="Create" style="text;html=1;align=center;verticalAlign=middle;whiteSpace=wrap;rounded=0;" vertex="1" parent="ujPkwXIdx63XAKxrbctk-75">
          <mxGeometry y="20" width="100" height="30" as="geometry" />
        </mxCell>
        <mxCell id="ujPkwXIdx63XAKxrbctk-77" style="edgeStyle=orthogonalEdgeStyle;rounded=0;orthogonalLoop=1;jettySize=auto;html=1;entryX=0.5;entryY=0;entryDx=0;entryDy=0;endArrow=none;startFill=0;" edge="1" parent="1" source="ujPkwXIdx63XAKxrbctk-65" target="ujPkwXIdx63XAKxrbctk-69">
          <mxGeometry relative="1" as="geometry">
            <Array as="points">
              <mxPoint x="950" y="530" />
              <mxPoint x="880" y="530" />
            </Array>
          </mxGeometry>
        </mxCell>
        <mxCell id="ujPkwXIdx63XAKxrbctk-79" style="edgeStyle=orthogonalEdgeStyle;rounded=0;orthogonalLoop=1;jettySize=auto;html=1;entryX=0.5;entryY=0;entryDx=0;entryDy=0;endArrow=none;startFill=0;" edge="1" parent="1" source="ujPkwXIdx63XAKxrbctk-65" target="ujPkwXIdx63XAKxrbctk-75">
          <mxGeometry relative="1" as="geometry">
            <Array as="points">
              <mxPoint x="950" y="530" />
              <mxPoint x="1120" y="530" />
            </Array>
          </mxGeometry>
        </mxCell>
        <mxCell id="ujPkwXIdx63XAKxrbctk-83" value="3.2.4" style="swimlane;fontStyle=0;childLayout=stackLayout;horizontal=1;startSize=20;fillColor=#ffffff;horizontalStack=0;resizeParent=1;resizeParentMax=0;resizeLast=0;collapsible=0;marginBottom=0;swimlaneFillColor=#ffffff;rounded=1;" vertex="1" parent="1">
          <mxGeometry x="1850" y="670" width="100" height="50" as="geometry" />
        </mxCell>
        <mxCell id="ujPkwXIdx63XAKxrbctk-84" value="Create" style="text;html=1;align=center;verticalAlign=middle;whiteSpace=wrap;rounded=0;" vertex="1" parent="ujPkwXIdx63XAKxrbctk-83">
          <mxGeometry y="20" width="100" height="30" as="geometry" />
        </mxCell>
        <mxCell id="ujPkwXIdx63XAKxrbctk-85" value="3.2.4.1" style="swimlane;fontStyle=0;childLayout=stackLayout;horizontal=1;startSize=20;fillColor=#ffffff;horizontalStack=0;resizeParent=1;resizeParentMax=0;resizeLast=0;collapsible=0;marginBottom=0;swimlaneFillColor=#ffffff;rounded=1;" vertex="1" parent="1">
          <mxGeometry x="1780" y="770" width="100" height="50" as="geometry" />
        </mxCell>
        <mxCell id="ujPkwXIdx63XAKxrbctk-86" value="Create Group" style="text;html=1;align=center;verticalAlign=middle;whiteSpace=wrap;rounded=0;" vertex="1" parent="ujPkwXIdx63XAKxrbctk-85">
          <mxGeometry y="20" width="100" height="30" as="geometry" />
        </mxCell>
        <mxCell id="ujPkwXIdx63XAKxrbctk-87" value="3.2.4.2" style="swimlane;fontStyle=0;childLayout=stackLayout;horizontal=1;startSize=20;fillColor=#ffffff;horizontalStack=0;resizeParent=1;resizeParentMax=0;resizeLast=0;collapsible=0;marginBottom=0;swimlaneFillColor=#ffffff;rounded=1;" vertex="1" parent="1">
          <mxGeometry x="1930" y="770" width="100" height="50" as="geometry" />
        </mxCell>
        <mxCell id="ujPkwXIdx63XAKxrbctk-88" value="Create Event" style="text;html=1;align=center;verticalAlign=middle;whiteSpace=wrap;rounded=0;" vertex="1" parent="ujPkwXIdx63XAKxrbctk-87">
          <mxGeometry y="20" width="100" height="30" as="geometry" />
        </mxCell>
        <mxCell id="ujPkwXIdx63XAKxrbctk-89" style="edgeStyle=orthogonalEdgeStyle;rounded=0;orthogonalLoop=1;jettySize=auto;html=1;entryX=0.5;entryY=0;entryDx=0;entryDy=0;endArrow=none;startFill=0;" edge="1" parent="1" source="ujPkwXIdx63XAKxrbctk-84" target="ujPkwXIdx63XAKxrbctk-85">
          <mxGeometry relative="1" as="geometry" />
        </mxCell>
        <mxCell id="ujPkwXIdx63XAKxrbctk-90" style="edgeStyle=orthogonalEdgeStyle;rounded=0;orthogonalLoop=1;jettySize=auto;html=1;entryX=0.5;entryY=0;entryDx=0;entryDy=0;endArrow=none;startFill=0;" edge="1" parent="1" source="ujPkwXIdx63XAKxrbctk-84" target="ujPkwXIdx63XAKxrbctk-87">
          <mxGeometry relative="1" as="geometry" />
        </mxCell>
        <mxCell id="ujPkwXIdx63XAKxrbctk-94" value="3.2.3" style="swimlane;fontStyle=0;childLayout=stackLayout;horizontal=1;startSize=20;fillColor=#ffffff;horizontalStack=0;resizeParent=1;resizeParentMax=0;resizeLast=0;collapsible=0;marginBottom=0;swimlaneFillColor=#ffffff;rounded=1;" vertex="1" parent="1">
          <mxGeometry x="1390" y="670" width="100" height="50" as="geometry" />
        </mxCell>
        <mxCell id="ujPkwXIdx63XAKxrbctk-95" value="Connect" style="text;html=1;align=center;verticalAlign=middle;whiteSpace=wrap;rounded=0;" vertex="1" parent="ujPkwXIdx63XAKxrbctk-94">
          <mxGeometry y="20" width="100" height="30" as="geometry" />
        </mxCell>
        <mxCell id="ujPkwXIdx63XAKxrbctk-98" value="3.2.3.1" style="swimlane;fontStyle=0;childLayout=stackLayout;horizontal=1;startSize=20;fillColor=#ffffff;horizontalStack=0;resizeParent=1;resizeParentMax=0;resizeLast=0;collapsible=0;marginBottom=0;swimlaneFillColor=#ffffff;rounded=1;" vertex="1" parent="1">
          <mxGeometry x="1150" y="770" width="100" height="50" as="geometry" />
        </mxCell>
        <mxCell id="ujPkwXIdx63XAKxrbctk-99" value="Search" style="text;html=1;align=center;verticalAlign=middle;whiteSpace=wrap;rounded=0;" vertex="1" parent="ujPkwXIdx63XAKxrbctk-98">
          <mxGeometry y="20" width="100" height="30" as="geometry" />
        </mxCell>
        <mxCell id="ujPkwXIdx63XAKxrbctk-100" value="3.2.3.2" style="swimlane;fontStyle=0;childLayout=stackLayout;horizontal=1;startSize=20;fillColor=#ffffff;horizontalStack=0;resizeParent=1;resizeParentMax=0;resizeLast=0;collapsible=0;marginBottom=0;swimlaneFillColor=#ffffff;rounded=1;" vertex="1" parent="1">
          <mxGeometry x="1270" y="770" width="100" height="50" as="geometry" />
        </mxCell>
        <mxCell id="ujPkwXIdx63XAKxrbctk-101" value="Users" style="text;html=1;align=center;verticalAlign=middle;whiteSpace=wrap;rounded=0;" vertex="1" parent="ujPkwXIdx63XAKxrbctk-100">
          <mxGeometry y="20" width="100" height="30" as="geometry" />
        </mxCell>
        <mxCell id="ujPkwXIdx63XAKxrbctk-102" value="3.2.3.3" style="swimlane;fontStyle=0;childLayout=stackLayout;horizontal=1;startSize=20;fillColor=#ffffff;horizontalStack=0;resizeParent=1;resizeParentMax=0;resizeLast=0;collapsible=0;marginBottom=0;swimlaneFillColor=#ffffff;rounded=1;" vertex="1" parent="1">
          <mxGeometry x="1390" y="770" width="100" height="50" as="geometry" />
        </mxCell>
        <mxCell id="ujPkwXIdx63XAKxrbctk-103" value="Teams" style="text;html=1;align=center;verticalAlign=middle;whiteSpace=wrap;rounded=0;" vertex="1" parent="ujPkwXIdx63XAKxrbctk-102">
          <mxGeometry y="20" width="100" height="30" as="geometry" />
        </mxCell>
        <mxCell id="ujPkwXIdx63XAKxrbctk-107" value="3.2.3.4" style="swimlane;fontStyle=0;childLayout=stackLayout;horizontal=1;startSize=20;fillColor=#ffffff;horizontalStack=0;resizeParent=1;resizeParentMax=0;resizeLast=0;collapsible=0;marginBottom=0;swimlaneFillColor=#ffffff;rounded=1;" vertex="1" parent="1">
          <mxGeometry x="1510" y="770" width="100" height="50" as="geometry" />
        </mxCell>
        <mxCell id="ujPkwXIdx63XAKxrbctk-108" value="Clubs" style="text;html=1;align=center;verticalAlign=middle;whiteSpace=wrap;rounded=0;" vertex="1" parent="ujPkwXIdx63XAKxrbctk-107">
          <mxGeometry y="20" width="100" height="30" as="geometry" />
        </mxCell>
        <mxCell id="ujPkwXIdx63XAKxrbctk-109" value="3.2.3.5" style="swimlane;fontStyle=0;childLayout=stackLayout;horizontal=1;startSize=20;fillColor=#ffffff;horizontalStack=0;resizeParent=1;resizeParentMax=0;resizeLast=0;collapsible=0;marginBottom=0;swimlaneFillColor=#ffffff;rounded=1;" vertex="1" parent="1">
          <mxGeometry x="1630" y="770" width="100" height="50" as="geometry" />
        </mxCell>
        <mxCell id="ujPkwXIdx63XAKxrbctk-110" value="Organizers" style="text;html=1;align=center;verticalAlign=middle;whiteSpace=wrap;rounded=0;" vertex="1" parent="ujPkwXIdx63XAKxrbctk-109">
          <mxGeometry y="20" width="100" height="30" as="geometry" />
        </mxCell>
        <mxCell id="ujPkwXIdx63XAKxrbctk-111" value="3.2.3.2.1" style="swimlane;fontStyle=0;childLayout=stackLayout;horizontal=1;startSize=20;fillColor=#ffffff;horizontalStack=0;resizeParent=1;resizeParentMax=0;resizeLast=0;collapsible=0;marginBottom=0;swimlaneFillColor=#ffffff;rounded=1;" vertex="1" parent="1">
          <mxGeometry x="1270" y="850" width="100" height="50" as="geometry" />
        </mxCell>
        <mxCell id="ujPkwXIdx63XAKxrbctk-112" value="User Profile" style="text;html=1;align=center;verticalAlign=middle;whiteSpace=wrap;rounded=0;" vertex="1" parent="ujPkwXIdx63XAKxrbctk-111">
          <mxGeometry y="20" width="100" height="30" as="geometry" />
        </mxCell>
        <mxCell id="ujPkwXIdx63XAKxrbctk-113" value="3.2.3.3.1" style="swimlane;fontStyle=0;childLayout=stackLayout;horizontal=1;startSize=20;fillColor=#ffffff;horizontalStack=0;resizeParent=1;resizeParentMax=0;resizeLast=0;collapsible=0;marginBottom=0;swimlaneFillColor=#ffffff;rounded=1;" vertex="1" parent="1">
          <mxGeometry x="1390" y="850" width="100" height="50" as="geometry" />
        </mxCell>
        <mxCell id="ujPkwXIdx63XAKxrbctk-114" value="Team Profile" style="text;html=1;align=center;verticalAlign=middle;whiteSpace=wrap;rounded=0;" vertex="1" parent="ujPkwXIdx63XAKxrbctk-113">
          <mxGeometry y="20" width="100" height="30" as="geometry" />
        </mxCell>
        <mxCell id="ujPkwXIdx63XAKxrbctk-115" value="3.2.3.4.1" style="swimlane;fontStyle=0;childLayout=stackLayout;horizontal=1;startSize=20;fillColor=#ffffff;horizontalStack=0;resizeParent=1;resizeParentMax=0;resizeLast=0;collapsible=0;marginBottom=0;swimlaneFillColor=#ffffff;rounded=1;" vertex="1" parent="1">
          <mxGeometry x="1510" y="850" width="100" height="50" as="geometry" />
        </mxCell>
        <mxCell id="ujPkwXIdx63XAKxrbctk-116" value="Club Profile" style="text;html=1;align=center;verticalAlign=middle;whiteSpace=wrap;rounded=0;" vertex="1" parent="ujPkwXIdx63XAKxrbctk-115">
          <mxGeometry y="20" width="100" height="30" as="geometry" />
        </mxCell>
        <mxCell id="ujPkwXIdx63XAKxrbctk-117" value="3.2.3.5.1" style="swimlane;fontStyle=0;childLayout=stackLayout;horizontal=1;startSize=20;fillColor=#ffffff;horizontalStack=0;resizeParent=1;resizeParentMax=0;resizeLast=0;collapsible=0;marginBottom=0;swimlaneFillColor=#ffffff;rounded=1;" vertex="1" parent="1">
          <mxGeometry x="1630" y="850" width="100" height="50" as="geometry" />
        </mxCell>
        <mxCell id="ujPkwXIdx63XAKxrbctk-118" value="Organizer Profile" style="text;html=1;align=center;verticalAlign=middle;whiteSpace=wrap;rounded=0;" vertex="1" parent="ujPkwXIdx63XAKxrbctk-117">
          <mxGeometry y="20" width="100" height="30" as="geometry" />
        </mxCell>
        <mxCell id="ujPkwXIdx63XAKxrbctk-119" style="edgeStyle=orthogonalEdgeStyle;rounded=0;orthogonalLoop=1;jettySize=auto;html=1;entryX=0.5;entryY=0;entryDx=0;entryDy=0;endArrow=none;startFill=0;" edge="1" parent="1" source="ujPkwXIdx63XAKxrbctk-95" target="ujPkwXIdx63XAKxrbctk-98">
          <mxGeometry relative="1" as="geometry">
            <Array as="points">
              <mxPoint x="1440" y="740" />
              <mxPoint x="1200" y="740" />
            </Array>
          </mxGeometry>
        </mxCell>
        <mxCell id="ujPkwXIdx63XAKxrbctk-120" style="edgeStyle=orthogonalEdgeStyle;rounded=0;orthogonalLoop=1;jettySize=auto;html=1;entryX=0.5;entryY=0;entryDx=0;entryDy=0;endArrow=none;startFill=0;" edge="1" parent="1" source="ujPkwXIdx63XAKxrbctk-95" target="ujPkwXIdx63XAKxrbctk-102">
          <mxGeometry relative="1" as="geometry" />
        </mxCell>
        <mxCell id="ujPkwXIdx63XAKxrbctk-121" style="edgeStyle=orthogonalEdgeStyle;rounded=0;orthogonalLoop=1;jettySize=auto;html=1;entryX=0.5;entryY=0;entryDx=0;entryDy=0;endArrow=none;startFill=0;" edge="1" parent="1" source="ujPkwXIdx63XAKxrbctk-95" target="ujPkwXIdx63XAKxrbctk-100">
          <mxGeometry relative="1" as="geometry">
            <Array as="points">
              <mxPoint x="1440" y="740" />
              <mxPoint x="1320" y="740" />
            </Array>
          </mxGeometry>
        </mxCell>
        <mxCell id="ujPkwXIdx63XAKxrbctk-122" style="edgeStyle=orthogonalEdgeStyle;rounded=0;orthogonalLoop=1;jettySize=auto;html=1;entryX=0.5;entryY=0;entryDx=0;entryDy=0;endArrow=none;startFill=0;" edge="1" parent="1" source="ujPkwXIdx63XAKxrbctk-95" target="ujPkwXIdx63XAKxrbctk-107">
          <mxGeometry relative="1" as="geometry">
            <Array as="points">
              <mxPoint x="1440" y="740" />
              <mxPoint x="1560" y="740" />
            </Array>
          </mxGeometry>
        </mxCell>
        <mxCell id="ujPkwXIdx63XAKxrbctk-123" style="edgeStyle=orthogonalEdgeStyle;rounded=0;orthogonalLoop=1;jettySize=auto;html=1;entryX=0.5;entryY=0;entryDx=0;entryDy=0;endArrow=none;startFill=0;" edge="1" parent="1" source="ujPkwXIdx63XAKxrbctk-95" target="ujPkwXIdx63XAKxrbctk-109">
          <mxGeometry relative="1" as="geometry">
            <Array as="points">
              <mxPoint x="1440" y="740" />
              <mxPoint x="1680" y="740" />
            </Array>
          </mxGeometry>
        </mxCell>
        <mxCell id="ujPkwXIdx63XAKxrbctk-124" style="edgeStyle=orthogonalEdgeStyle;rounded=0;orthogonalLoop=1;jettySize=auto;html=1;endArrow=none;startFill=0;" edge="1" parent="1" source="ujPkwXIdx63XAKxrbctk-101" target="ujPkwXIdx63XAKxrbctk-111">
          <mxGeometry relative="1" as="geometry" />
        </mxCell>
        <mxCell id="ujPkwXIdx63XAKxrbctk-125" style="edgeStyle=orthogonalEdgeStyle;rounded=0;orthogonalLoop=1;jettySize=auto;html=1;entryX=0.5;entryY=0;entryDx=0;entryDy=0;endArrow=none;startFill=0;" edge="1" parent="1" source="ujPkwXIdx63XAKxrbctk-103" target="ujPkwXIdx63XAKxrbctk-113">
          <mxGeometry relative="1" as="geometry" />
        </mxCell>
        <mxCell id="ujPkwXIdx63XAKxrbctk-126" style="edgeStyle=orthogonalEdgeStyle;rounded=0;orthogonalLoop=1;jettySize=auto;html=1;entryX=0.5;entryY=0;entryDx=0;entryDy=0;endArrow=none;startFill=0;" edge="1" parent="1" source="ujPkwXIdx63XAKxrbctk-108" target="ujPkwXIdx63XAKxrbctk-115">
          <mxGeometry relative="1" as="geometry" />
        </mxCell>
        <mxCell id="ujPkwXIdx63XAKxrbctk-127" style="edgeStyle=orthogonalEdgeStyle;rounded=0;orthogonalLoop=1;jettySize=auto;html=1;entryX=0.5;entryY=0;entryDx=0;entryDy=0;endArrow=none;startFill=0;" edge="1" parent="1" source="ujPkwXIdx63XAKxrbctk-110" target="ujPkwXIdx63XAKxrbctk-117">
          <mxGeometry relative="1" as="geometry" />
        </mxCell>
        <mxCell id="ujPkwXIdx63XAKxrbctk-128" value="3.2.2" style="swimlane;fontStyle=0;childLayout=stackLayout;horizontal=1;startSize=20;fillColor=#ffffff;horizontalStack=0;resizeParent=1;resizeParentMax=0;resizeLast=0;collapsible=0;marginBottom=0;swimlaneFillColor=#ffffff;rounded=1;" vertex="1" parent="1">
          <mxGeometry x="830" y="670" width="100" height="50" as="geometry" />
        </mxCell>
        <mxCell id="ujPkwXIdx63XAKxrbctk-129" value="Events" style="text;html=1;align=center;verticalAlign=middle;whiteSpace=wrap;rounded=0;" vertex="1" parent="ujPkwXIdx63XAKxrbctk-128">
          <mxGeometry y="20" width="100" height="30" as="geometry" />
        </mxCell>
        <mxCell id="ujPkwXIdx63XAKxrbctk-130" value="3.2.2.1" style="swimlane;fontStyle=0;childLayout=stackLayout;horizontal=1;startSize=20;fillColor=#ffffff;horizontalStack=0;resizeParent=1;resizeParentMax=0;resizeLast=0;collapsible=0;marginBottom=0;swimlaneFillColor=#ffffff;rounded=1;" vertex="1" parent="1">
          <mxGeometry x="650" y="770" width="100" height="50" as="geometry" />
        </mxCell>
        <mxCell id="ujPkwXIdx63XAKxrbctk-131" value="Search" style="text;html=1;align=center;verticalAlign=middle;whiteSpace=wrap;rounded=0;" vertex="1" parent="ujPkwXIdx63XAKxrbctk-130">
          <mxGeometry y="20" width="100" height="30" as="geometry" />
        </mxCell>
        <mxCell id="ujPkwXIdx63XAKxrbctk-132" value="3.2.2.2" style="swimlane;fontStyle=0;childLayout=stackLayout;horizontal=1;startSize=20;fillColor=#ffffff;horizontalStack=0;resizeParent=1;resizeParentMax=0;resizeLast=0;collapsible=0;marginBottom=0;swimlaneFillColor=#ffffff;rounded=1;" vertex="1" parent="1">
          <mxGeometry x="770" y="770" width="100" height="50" as="geometry" />
        </mxCell>
        <mxCell id="ujPkwXIdx63XAKxrbctk-133" value="Practice" style="text;html=1;align=center;verticalAlign=middle;whiteSpace=wrap;rounded=0;" vertex="1" parent="ujPkwXIdx63XAKxrbctk-132">
          <mxGeometry y="20" width="100" height="30" as="geometry" />
        </mxCell>
        <mxCell id="ujPkwXIdx63XAKxrbctk-134" value="3.2.2.3" style="swimlane;fontStyle=0;childLayout=stackLayout;horizontal=1;startSize=20;fillColor=#ffffff;horizontalStack=0;resizeParent=1;resizeParentMax=0;resizeLast=0;collapsible=0;marginBottom=0;swimlaneFillColor=#ffffff;rounded=1;" vertex="1" parent="1">
          <mxGeometry x="890" y="770" width="100" height="50" as="geometry" />
        </mxCell>
        <mxCell id="ujPkwXIdx63XAKxrbctk-135" value="Tryouts" style="text;html=1;align=center;verticalAlign=middle;whiteSpace=wrap;rounded=0;" vertex="1" parent="ujPkwXIdx63XAKxrbctk-134">
          <mxGeometry y="20" width="100" height="30" as="geometry" />
        </mxCell>
        <mxCell id="ujPkwXIdx63XAKxrbctk-136" value="3.2.2.4" style="swimlane;fontStyle=0;childLayout=stackLayout;horizontal=1;startSize=20;fillColor=#ffffff;horizontalStack=0;resizeParent=1;resizeParentMax=0;resizeLast=0;collapsible=0;marginBottom=0;swimlaneFillColor=#ffffff;rounded=1;" vertex="1" parent="1">
          <mxGeometry x="1010" y="770" width="100" height="50" as="geometry" />
        </mxCell>
        <mxCell id="ujPkwXIdx63XAKxrbctk-137" value="Organizers" style="text;html=1;align=center;verticalAlign=middle;whiteSpace=wrap;rounded=0;" vertex="1" parent="ujPkwXIdx63XAKxrbctk-136">
          <mxGeometry y="20" width="100" height="30" as="geometry" />
        </mxCell>
        <mxCell id="ujPkwXIdx63XAKxrbctk-140" value="3.2.2.2.1" style="swimlane;fontStyle=0;childLayout=stackLayout;horizontal=1;startSize=20;fillColor=#ffffff;horizontalStack=0;resizeParent=1;resizeParentMax=0;resizeLast=0;collapsible=0;marginBottom=0;swimlaneFillColor=#ffffff;rounded=1;" vertex="1" parent="1">
          <mxGeometry x="770" y="850" width="100" height="50" as="geometry" />
        </mxCell>
        <mxCell id="ujPkwXIdx63XAKxrbctk-141" value="Practice Post" style="text;html=1;align=center;verticalAlign=middle;whiteSpace=wrap;rounded=0;" vertex="1" parent="ujPkwXIdx63XAKxrbctk-140">
          <mxGeometry y="20" width="100" height="30" as="geometry" />
        </mxCell>
        <mxCell id="ujPkwXIdx63XAKxrbctk-142" value="3.2.3.3.1" style="swimlane;fontStyle=0;childLayout=stackLayout;horizontal=1;startSize=20;fillColor=#ffffff;horizontalStack=0;resizeParent=1;resizeParentMax=0;resizeLast=0;collapsible=0;marginBottom=0;swimlaneFillColor=#ffffff;rounded=1;" vertex="1" parent="1">
          <mxGeometry x="890" y="850" width="100" height="50" as="geometry" />
        </mxCell>
        <mxCell id="ujPkwXIdx63XAKxrbctk-143" value="Team Card / Profile" style="text;html=1;align=center;verticalAlign=middle;whiteSpace=wrap;rounded=0;" vertex="1" parent="ujPkwXIdx63XAKxrbctk-142">
          <mxGeometry y="20" width="100" height="30" as="geometry" />
        </mxCell>
        <mxCell id="ujPkwXIdx63XAKxrbctk-144" value="3.2.3.4.1" style="swimlane;fontStyle=0;childLayout=stackLayout;horizontal=1;startSize=20;fillColor=#ffffff;horizontalStack=0;resizeParent=1;resizeParentMax=0;resizeLast=0;collapsible=0;marginBottom=0;swimlaneFillColor=#ffffff;rounded=1;" vertex="1" parent="1">
          <mxGeometry x="1010" y="850" width="100" height="50" as="geometry" />
        </mxCell>
        <mxCell id="ujPkwXIdx63XAKxrbctk-145" value="Club Card / Profile" style="text;html=1;align=center;verticalAlign=middle;whiteSpace=wrap;rounded=0;" vertex="1" parent="ujPkwXIdx63XAKxrbctk-144">
          <mxGeometry y="20" width="100" height="30" as="geometry" />
        </mxCell>
        <mxCell id="ujPkwXIdx63XAKxrbctk-148" style="edgeStyle=orthogonalEdgeStyle;rounded=0;orthogonalLoop=1;jettySize=auto;html=1;entryX=0.5;entryY=0;entryDx=0;entryDy=0;endArrow=none;startFill=0;" edge="1" parent="1" source="ujPkwXIdx63XAKxrbctk-129" target="ujPkwXIdx63XAKxrbctk-130">
          <mxGeometry relative="1" as="geometry">
            <Array as="points">
              <mxPoint x="880" y="740" />
              <mxPoint x="700" y="740" />
            </Array>
          </mxGeometry>
        </mxCell>
        <mxCell id="ujPkwXIdx63XAKxrbctk-149" style="edgeStyle=orthogonalEdgeStyle;rounded=0;orthogonalLoop=1;jettySize=auto;html=1;entryX=0.5;entryY=0;entryDx=0;entryDy=0;endArrow=none;startFill=0;" edge="1" parent="1" source="ujPkwXIdx63XAKxrbctk-129" target="ujPkwXIdx63XAKxrbctk-134">
          <mxGeometry relative="1" as="geometry">
            <Array as="points">
              <mxPoint x="880" y="740" />
              <mxPoint x="940" y="740" />
            </Array>
          </mxGeometry>
        </mxCell>
        <mxCell id="ujPkwXIdx63XAKxrbctk-150" style="edgeStyle=orthogonalEdgeStyle;rounded=0;orthogonalLoop=1;jettySize=auto;html=1;entryX=0.5;entryY=0;entryDx=0;entryDy=0;endArrow=none;startFill=0;" edge="1" parent="1" source="ujPkwXIdx63XAKxrbctk-129" target="ujPkwXIdx63XAKxrbctk-132">
          <mxGeometry relative="1" as="geometry">
            <Array as="points">
              <mxPoint x="880" y="740" />
              <mxPoint x="820" y="740" />
            </Array>
          </mxGeometry>
        </mxCell>
        <mxCell id="ujPkwXIdx63XAKxrbctk-151" style="edgeStyle=orthogonalEdgeStyle;rounded=0;orthogonalLoop=1;jettySize=auto;html=1;entryX=0.5;entryY=0;entryDx=0;entryDy=0;endArrow=none;startFill=0;" edge="1" parent="1" source="ujPkwXIdx63XAKxrbctk-129" target="ujPkwXIdx63XAKxrbctk-136">
          <mxGeometry relative="1" as="geometry">
            <Array as="points">
              <mxPoint x="880" y="740" />
              <mxPoint x="1060" y="740" />
            </Array>
          </mxGeometry>
        </mxCell>
        <mxCell id="ujPkwXIdx63XAKxrbctk-153" style="edgeStyle=orthogonalEdgeStyle;rounded=0;orthogonalLoop=1;jettySize=auto;html=1;endArrow=none;startFill=0;" edge="1" parent="1" source="ujPkwXIdx63XAKxrbctk-133" target="ujPkwXIdx63XAKxrbctk-140">
          <mxGeometry relative="1" as="geometry" />
        </mxCell>
        <mxCell id="ujPkwXIdx63XAKxrbctk-154" style="edgeStyle=orthogonalEdgeStyle;rounded=0;orthogonalLoop=1;jettySize=auto;html=1;entryX=0.5;entryY=0;entryDx=0;entryDy=0;endArrow=none;startFill=0;" edge="1" parent="1" source="ujPkwXIdx63XAKxrbctk-135" target="ujPkwXIdx63XAKxrbctk-142">
          <mxGeometry relative="1" as="geometry" />
        </mxCell>
        <mxCell id="ujPkwXIdx63XAKxrbctk-155" style="edgeStyle=orthogonalEdgeStyle;rounded=0;orthogonalLoop=1;jettySize=auto;html=1;entryX=0.5;entryY=0;entryDx=0;entryDy=0;endArrow=none;startFill=0;" edge="1" parent="1" source="ujPkwXIdx63XAKxrbctk-137" target="ujPkwXIdx63XAKxrbctk-144">
          <mxGeometry relative="1" as="geometry" />
        </mxCell>
        <mxCell id="ujPkwXIdx63XAKxrbctk-159" value="3.2.2.1" style="swimlane;fontStyle=0;childLayout=stackLayout;horizontal=1;startSize=20;fillColor=#ffffff;horizontalStack=0;resizeParent=1;resizeParentMax=0;resizeLast=0;collapsible=0;marginBottom=0;swimlaneFillColor=#ffffff;rounded=1;" vertex="1" parent="1">
          <mxGeometry x="770" y="770" width="100" height="50" as="geometry" />
        </mxCell>
        <mxCell id="ujPkwXIdx63XAKxrbctk-160" value="Practice" style="text;html=1;align=center;verticalAlign=middle;whiteSpace=wrap;rounded=0;" vertex="1" parent="ujPkwXIdx63XAKxrbctk-159">
          <mxGeometry y="20" width="100" height="30" as="geometry" />
        </mxCell>
        <mxCell id="ujPkwXIdx63XAKxrbctk-161" value="3.2.2.2" style="swimlane;fontStyle=0;childLayout=stackLayout;horizontal=1;startSize=20;fillColor=#ffffff;horizontalStack=0;resizeParent=1;resizeParentMax=0;resizeLast=0;collapsible=0;marginBottom=0;swimlaneFillColor=#ffffff;rounded=1;" vertex="1" parent="1">
          <mxGeometry x="890" y="770" width="100" height="50" as="geometry" />
        </mxCell>
        <mxCell id="ujPkwXIdx63XAKxrbctk-162" value="Tryouts" style="text;html=1;align=center;verticalAlign=middle;whiteSpace=wrap;rounded=0;" vertex="1" parent="ujPkwXIdx63XAKxrbctk-161">
          <mxGeometry y="20" width="100" height="30" as="geometry" />
        </mxCell>
        <mxCell id="ujPkwXIdx63XAKxrbctk-163" value="3.2.2.3" style="swimlane;fontStyle=0;childLayout=stackLayout;horizontal=1;startSize=20;fillColor=#ffffff;horizontalStack=0;resizeParent=1;resizeParentMax=0;resizeLast=0;collapsible=0;marginBottom=0;swimlaneFillColor=#ffffff;rounded=1;" vertex="1" parent="1">
          <mxGeometry x="1010" y="770" width="100" height="50" as="geometry" />
        </mxCell>
        <mxCell id="ujPkwXIdx63XAKxrbctk-164" value="Tournaments" style="text;html=1;align=center;verticalAlign=middle;whiteSpace=wrap;rounded=0;" vertex="1" parent="ujPkwXIdx63XAKxrbctk-163">
          <mxGeometry y="20" width="100" height="30" as="geometry" />
        </mxCell>
        <mxCell id="ujPkwXIdx63XAKxrbctk-167" value="3.2.2.2.1" style="swimlane;fontStyle=0;childLayout=stackLayout;horizontal=1;startSize=20;fillColor=#ffffff;horizontalStack=0;resizeParent=1;resizeParentMax=0;resizeLast=0;collapsible=0;marginBottom=0;swimlaneFillColor=#ffffff;rounded=1;" vertex="1" parent="1">
          <mxGeometry x="890" y="850" width="100" height="50" as="geometry" />
        </mxCell>
        <mxCell id="ujPkwXIdx63XAKxrbctk-168" value="Tryout Post" style="text;html=1;align=center;verticalAlign=middle;whiteSpace=wrap;rounded=0;" vertex="1" parent="ujPkwXIdx63XAKxrbctk-167">
          <mxGeometry y="20" width="100" height="30" as="geometry" />
        </mxCell>
        <mxCell id="ujPkwXIdx63XAKxrbctk-169" value="3.2.2.3.1" style="swimlane;fontStyle=0;childLayout=stackLayout;horizontal=1;startSize=20;fillColor=#ffffff;horizontalStack=0;resizeParent=1;resizeParentMax=0;resizeLast=0;collapsible=0;marginBottom=0;swimlaneFillColor=#ffffff;rounded=1;" vertex="1" parent="1">
          <mxGeometry x="1010" y="850" width="100" height="50" as="geometry" />
        </mxCell>
        <mxCell id="ujPkwXIdx63XAKxrbctk-170" value="Tournament Post" style="text;html=1;align=center;verticalAlign=middle;whiteSpace=wrap;rounded=0;" vertex="1" parent="ujPkwXIdx63XAKxrbctk-169">
          <mxGeometry y="20" width="100" height="30" as="geometry" />
        </mxCell>
        <mxCell id="ujPkwXIdx63XAKxrbctk-173" style="edgeStyle=orthogonalEdgeStyle;rounded=0;orthogonalLoop=1;jettySize=auto;html=1;endArrow=none;startFill=0;" edge="1" source="ujPkwXIdx63XAKxrbctk-162" target="ujPkwXIdx63XAKxrbctk-167" parent="1">
          <mxGeometry relative="1" as="geometry" />
        </mxCell>
        <mxCell id="ujPkwXIdx63XAKxrbctk-174" style="edgeStyle=orthogonalEdgeStyle;rounded=0;orthogonalLoop=1;jettySize=auto;html=1;entryX=0.5;entryY=0;entryDx=0;entryDy=0;endArrow=none;startFill=0;" edge="1" source="ujPkwXIdx63XAKxrbctk-164" target="ujPkwXIdx63XAKxrbctk-169" parent="1">
          <mxGeometry relative="1" as="geometry" />
        </mxCell>
        <mxCell id="ujPkwXIdx63XAKxrbctk-179" value="3.2.2.2.1.1" style="swimlane;fontStyle=0;childLayout=stackLayout;horizontal=1;startSize=20;fillColor=#ffffff;horizontalStack=0;resizeParent=1;resizeParentMax=0;resizeLast=0;collapsible=0;marginBottom=0;swimlaneFillColor=#ffffff;rounded=1;" vertex="1" parent="1">
          <mxGeometry x="770" y="930" width="100" height="50" as="geometry" />
        </mxCell>
        <mxCell id="ujPkwXIdx63XAKxrbctk-180" value="Scan Attendance" style="text;html=1;align=center;verticalAlign=middle;whiteSpace=wrap;rounded=0;" vertex="1" parent="ujPkwXIdx63XAKxrbctk-179">
          <mxGeometry y="20" width="100" height="30" as="geometry" />
        </mxCell>
        <mxCell id="ujPkwXIdx63XAKxrbctk-181" style="edgeStyle=orthogonalEdgeStyle;rounded=0;orthogonalLoop=1;jettySize=auto;html=1;" edge="1" parent="1" source="ujPkwXIdx63XAKxrbctk-141" target="ujPkwXIdx63XAKxrbctk-179">
          <mxGeometry relative="1" as="geometry" />
        </mxCell>
      </root>
    </mxGraphModel>
  </diagram>
</mxfile>
